<mxfile host="app.diagrams.net" modified="2023-12-20T14:56:16.797Z" agent="Mozilla/5.0 (Macintosh; Intel Mac OS X 10_15_7) AppleWebKit/605.1.15 (KHTML, like Gecko) Version/17.0 Safari/605.1.15" etag="1AQoKUGQSDWzFw5_C45z" version="22.1.11" type="device">
  <diagram name="Page-1" id="dA-JF8JNPWtBPkERaw5k">
    <mxGraphModel dx="2533" dy="1103" grid="1" gridSize="10" guides="1" tooltips="1" connect="1" arrows="1" fold="1" page="1" pageScale="1" pageWidth="827" pageHeight="1169" math="1" shadow="0">
      <root>
        <mxCell id="0" />
        <mxCell id="1" parent="0" />
        <mxCell id="uUXREMYuN0MkH9lXa1Dk-215" value="" style="rounded=0;whiteSpace=wrap;html=1;fillColor=#f5f5f5;strokeColor=#666666;fontColor=#333333;fillStyle=auto;" parent="1" vertex="1">
          <mxGeometry x="790" y="1000.5" width="100" height="40" as="geometry" />
        </mxCell>
        <mxCell id="RKJGCW_a5lWqGsD36-ap-140" value="" style="rounded=0;whiteSpace=wrap;html=1;fillColor=#000000;strokeColor=#666666;fontColor=#333333;fillStyle=hatch;" parent="1" vertex="1">
          <mxGeometry x="790" y="1000.5" width="100" height="40" as="geometry" />
        </mxCell>
        <mxCell id="RKJGCW_a5lWqGsD36-ap-132" value="" style="endArrow=none;html=1;rounded=0;entryX=0.5;entryY=1;entryDx=0;entryDy=0;" parent="1" edge="1">
          <mxGeometry width="50" height="50" relative="1" as="geometry">
            <mxPoint x="660" y="900" as="sourcePoint" />
            <mxPoint x="659.37" y="860" as="targetPoint" />
          </mxGeometry>
        </mxCell>
        <mxCell id="uUXREMYuN0MkH9lXa1Dk-126" value="" style="rounded=0;whiteSpace=wrap;html=1;fillColor=#f5f5f5;strokeColor=#666666;fontColor=#333333;" parent="1" vertex="1">
          <mxGeometry x="430" y="1000" width="100" height="40" as="geometry" />
        </mxCell>
        <mxCell id="uUXREMYuN0MkH9lXa1Dk-154" value="" style="endArrow=none;html=1;rounded=0;exitX=0.5;exitY=0;exitDx=0;exitDy=0;entryX=0.5;entryY=0;entryDx=0;entryDy=0;" parent="1" source="uUXREMYuN0MkH9lXa1Dk-126" edge="1">
          <mxGeometry width="50" height="50" relative="1" as="geometry">
            <mxPoint x="460" y="1000" as="sourcePoint" />
            <mxPoint x="600" y="1000" as="targetPoint" />
            <Array as="points">
              <mxPoint x="480" y="980" />
              <mxPoint x="560" y="980" />
              <mxPoint x="600" y="980" />
            </Array>
          </mxGeometry>
        </mxCell>
        <mxCell id="uUXREMYuN0MkH9lXa1Dk-155" value="" style="endArrow=none;html=1;rounded=0;entryX=0.5;entryY=1;entryDx=0;entryDy=0;endFill=0;" parent="1" edge="1">
          <mxGeometry width="50" height="50" relative="1" as="geometry">
            <mxPoint x="539.82" y="980" as="sourcePoint" />
            <mxPoint x="539.82" y="960" as="targetPoint" />
          </mxGeometry>
        </mxCell>
        <mxCell id="uUXREMYuN0MkH9lXa1Dk-166" value="" style="group;strokeColor=default;" parent="1" vertex="1" connectable="0">
          <mxGeometry x="-51" y="1080" width="940" height="30" as="geometry" />
        </mxCell>
        <mxCell id="uUXREMYuN0MkH9lXa1Dk-167" value="&lt;font style=&quot;font-size: 16px;&quot;&gt;I&lt;/font&gt;" style="text;html=1;align=center;verticalAlign=middle;whiteSpace=wrap;rounded=0;fillColor=none;strokeColor=none;fontFamily=Computer Modern;" parent="uUXREMYuN0MkH9lXa1Dk-166" vertex="1">
          <mxGeometry x="27.207948717948717" y="6.285714285714286" width="48.04846153846153" height="17.142857142857142" as="geometry" />
        </mxCell>
        <mxCell id="uUXREMYuN0MkH9lXa1Dk-168" value="&lt;font size=&quot;3&quot;&gt;love&lt;/font&gt;" style="text;html=1;align=center;verticalAlign=middle;whiteSpace=wrap;rounded=0;fillColor=none;strokeColor=none;fontFamily=Computer Modern;" parent="uUXREMYuN0MkH9lXa1Dk-166" vertex="1">
          <mxGeometry x="254.82051282051282" y="2" width="72.30769230769229" height="25.71428571428571" as="geometry" />
        </mxCell>
        <mxCell id="uUXREMYuN0MkH9lXa1Dk-169" value="&lt;font size=&quot;3&quot;&gt;to&lt;/font&gt;" style="text;html=1;align=center;verticalAlign=middle;whiteSpace=wrap;rounded=0;fillColor=none;strokeColor=none;fontFamily=Computer Modern;" parent="uUXREMYuN0MkH9lXa1Dk-166" vertex="1">
          <mxGeometry x="362.1794871794871" y="2" width="96.41025641025641" height="25.71428571428571" as="geometry" />
        </mxCell>
        <mxCell id="uUXREMYuN0MkH9lXa1Dk-170" value="&lt;font size=&quot;3&quot;&gt;eat&lt;/font&gt;" style="text;html=1;align=center;verticalAlign=middle;whiteSpace=wrap;rounded=0;fillColor=none;strokeColor=none;fontFamily=Computer Modern;" parent="uUXREMYuN0MkH9lXa1Dk-166" vertex="1">
          <mxGeometry x="480.64102564102564" y="2" width="98.9530769230769" height="25.71428571428571" as="geometry" />
        </mxCell>
        <mxCell id="uUXREMYuN0MkH9lXa1Dk-171" value="&lt;font size=&quot;3&quot;&gt;free&lt;/font&gt;" style="text;html=1;align=center;verticalAlign=middle;whiteSpace=wrap;rounded=0;fillColor=none;strokeColor=none;fontFamily=Computer Modern;" parent="uUXREMYuN0MkH9lXa1Dk-166" vertex="1">
          <mxGeometry x="603.2564102564102" y="2" width="96.41025641025641" height="25.71428571428571" as="geometry" />
        </mxCell>
        <mxCell id="uUXREMYuN0MkH9lXa1Dk-174" value="&lt;font size=&quot;3&quot;&gt;just&lt;/font&gt;" style="text;html=1;align=center;verticalAlign=middle;whiteSpace=wrap;rounded=0;fillColor=none;strokeColor=none;fontFamily=Computer Modern;" parent="uUXREMYuN0MkH9lXa1Dk-166" vertex="1">
          <mxGeometry x="123.35897435897435" y="2" width="96.41025641025641" height="25.71428571428571" as="geometry" />
        </mxCell>
        <mxCell id="uUXREMYuN0MkH9lXa1Dk-172" value="&lt;font size=&quot;3&quot;&gt;lunch&lt;/font&gt;" style="text;html=1;align=center;verticalAlign=middle;whiteSpace=wrap;rounded=0;fillColor=none;strokeColor=none;fontFamily=Computer Modern;" parent="uUXREMYuN0MkH9lXa1Dk-166" vertex="1">
          <mxGeometry x="734.926207126207" y="2" width="73.24675324675323" height="25.71428571428571" as="geometry" />
        </mxCell>
        <mxCell id="uUXREMYuN0MkH9lXa1Dk-211" value="" style="rounded=0;whiteSpace=wrap;html=1;fillColor=#f5f5f5;strokeColor=#666666;fontColor=#333333;" parent="1" vertex="1">
          <mxGeometry x="550" y="1000" width="100" height="40" as="geometry" />
        </mxCell>
        <mxCell id="uUXREMYuN0MkH9lXa1Dk-212" value="&lt;font color=&quot;#ad3e00&quot;&gt;`A_4^0 = 2A_2^1 - A_5^0`&lt;/font&gt;" style="text;html=1;strokeColor=none;fillColor=none;align=center;verticalAlign=middle;whiteSpace=wrap;rounded=0;" parent="1" vertex="1">
          <mxGeometry x="450" y="1005" width="60" height="30" as="geometry" />
        </mxCell>
        <mxCell id="uUXREMYuN0MkH9lXa1Dk-213" value="" style="rounded=0;whiteSpace=wrap;html=1;fillColor=#f5f5f5;strokeColor=#666666;fontColor=#333333;" parent="1" vertex="1">
          <mxGeometry x="670" y="1000" width="100" height="40" as="geometry" />
        </mxCell>
        <mxCell id="uUXREMYuN0MkH9lXa1Dk-216" value="&lt;font color=&quot;#ad3e00&quot;&gt;`A_6^0 =&lt;br&gt;A_3^1`&lt;/font&gt;" style="text;html=1;strokeColor=none;fillColor=none;align=center;verticalAlign=middle;whiteSpace=wrap;rounded=0;" parent="1" vertex="1">
          <mxGeometry x="690" y="1005" width="60" height="30" as="geometry" />
        </mxCell>
        <mxCell id="uUXREMYuN0MkH9lXa1Dk-218" value="" style="endArrow=none;html=1;rounded=0;entryX=0.5;entryY=1;entryDx=0;entryDy=0;" parent="1" edge="1">
          <mxGeometry width="50" height="50" relative="1" as="geometry">
            <mxPoint x="419.37" y="820" as="sourcePoint" />
            <mxPoint x="419.37" y="780" as="targetPoint" />
          </mxGeometry>
        </mxCell>
        <mxCell id="uUXREMYuN0MkH9lXa1Dk-220" value="" style="endArrow=none;html=1;rounded=0;entryX=0.5;entryY=1;entryDx=0;entryDy=0;" parent="1" edge="1">
          <mxGeometry width="50" height="50" relative="1" as="geometry">
            <mxPoint x="719.56" y="1080" as="sourcePoint" />
            <mxPoint x="719.56" y="1040" as="targetPoint" />
          </mxGeometry>
        </mxCell>
        <mxCell id="uUXREMYuN0MkH9lXa1Dk-221" value="" style="endArrow=none;html=1;rounded=0;entryX=0.5;entryY=1;entryDx=0;entryDy=0;" parent="1" edge="1">
          <mxGeometry width="50" height="50" relative="1" as="geometry">
            <mxPoint x="839.78" y="1080" as="sourcePoint" />
            <mxPoint x="839.78" y="1040" as="targetPoint" />
          </mxGeometry>
        </mxCell>
        <mxCell id="uUXREMYuN0MkH9lXa1Dk-229" value="" style="rounded=0;whiteSpace=wrap;html=1;fillColor=#dae8fc;strokeColor=#6c8ebf;" parent="1" vertex="1">
          <mxGeometry x="440" y="1129" width="30" height="30" as="geometry" />
        </mxCell>
        <mxCell id="uUXREMYuN0MkH9lXa1Dk-230" value="&lt;font face=&quot;Computer Modern&quot;&gt;&lt;span style=&quot;font-size: 14px;&quot;&gt;Buds at `t=0`&lt;/span&gt;&lt;/font&gt;" style="text;html=1;strokeColor=none;fillColor=none;align=center;verticalAlign=middle;whiteSpace=wrap;rounded=0;" parent="1" vertex="1">
          <mxGeometry x="466" y="1130" width="104" height="30" as="geometry" />
        </mxCell>
        <mxCell id="RKJGCW_a5lWqGsD36-ap-1" value="" style="rounded=0;whiteSpace=wrap;html=1;fillColor=#dae8fc;strokeColor=#6c8ebf;" parent="1" vertex="1">
          <mxGeometry x="1224" y="850" width="120" height="40" as="geometry" />
        </mxCell>
        <mxCell id="RKJGCW_a5lWqGsD36-ap-2" value="" style="rounded=0;whiteSpace=wrap;html=1;fillColor=#dae8fc;strokeColor=#6c8ebf;" parent="1" vertex="1">
          <mxGeometry x="1064" y="930" width="40" height="40" as="geometry" />
        </mxCell>
        <mxCell id="RKJGCW_a5lWqGsD36-ap-3" value="" style="rounded=0;whiteSpace=wrap;html=1;fillColor=#dae8fc;strokeColor=#6c8ebf;" parent="1" vertex="1">
          <mxGeometry x="1064" y="850" width="120" height="40" as="geometry" />
        </mxCell>
        <mxCell id="RKJGCW_a5lWqGsD36-ap-4" value="" style="rounded=0;whiteSpace=wrap;html=1;fillColor=#dae8fc;strokeColor=#6c8ebf;" parent="1" vertex="1">
          <mxGeometry x="1224" y="930" width="40" height="40" as="geometry" />
        </mxCell>
        <mxCell id="RKJGCW_a5lWqGsD36-ap-5" value="" style="rounded=0;whiteSpace=wrap;html=1;fillColor=#dae8fc;strokeColor=#6c8ebf;" parent="1" vertex="1">
          <mxGeometry x="1144" y="930" width="40" height="40" as="geometry" />
        </mxCell>
        <mxCell id="RKJGCW_a5lWqGsD36-ap-6" value="" style="rounded=0;whiteSpace=wrap;html=1;fillColor=#dae8fc;strokeColor=#6c8ebf;" parent="1" vertex="1">
          <mxGeometry x="1304" y="930" width="40" height="40" as="geometry" />
        </mxCell>
        <mxCell id="RKJGCW_a5lWqGsD36-ap-13" value="" style="rounded=0;whiteSpace=wrap;html=1;fillColor=#dae8fc;strokeColor=#6c8ebf;" parent="1" vertex="1">
          <mxGeometry x="1064" y="770" width="280" height="40" as="geometry" />
        </mxCell>
        <mxCell id="RKJGCW_a5lWqGsD36-ap-15" value="" style="endArrow=none;html=1;rounded=0;exitX=0.5;exitY=0;exitDx=0;exitDy=0;entryX=0.5;entryY=0;entryDx=0;entryDy=0;" parent="1" source="RKJGCW_a5lWqGsD36-ap-3" target="RKJGCW_a5lWqGsD36-ap-1" edge="1">
          <mxGeometry width="50" height="50" relative="1" as="geometry">
            <mxPoint x="1214" y="900" as="sourcePoint" />
            <mxPoint x="1264" y="850" as="targetPoint" />
            <Array as="points">
              <mxPoint x="1124" y="830" />
              <mxPoint x="1204" y="830" />
              <mxPoint x="1284" y="830" />
            </Array>
          </mxGeometry>
        </mxCell>
        <mxCell id="RKJGCW_a5lWqGsD36-ap-16" value="" style="endArrow=none;html=1;rounded=0;entryX=0.5;entryY=1;entryDx=0;entryDy=0;endFill=0;" parent="1" target="RKJGCW_a5lWqGsD36-ap-13" edge="1">
          <mxGeometry width="50" height="50" relative="1" as="geometry">
            <mxPoint x="1204" y="830" as="sourcePoint" />
            <mxPoint x="1264" y="850" as="targetPoint" />
          </mxGeometry>
        </mxCell>
        <mxCell id="RKJGCW_a5lWqGsD36-ap-24" value="" style="endArrow=none;html=1;rounded=0;exitX=0.5;exitY=0;exitDx=0;exitDy=0;entryX=0.5;entryY=0;entryDx=0;entryDy=0;" parent="1" edge="1">
          <mxGeometry width="50" height="50" relative="1" as="geometry">
            <mxPoint x="1084" y="930" as="sourcePoint" />
            <mxPoint x="1164" y="930" as="targetPoint" />
            <Array as="points">
              <mxPoint x="1084" y="910" />
              <mxPoint x="1124" y="910" />
              <mxPoint x="1164" y="910" />
            </Array>
          </mxGeometry>
        </mxCell>
        <mxCell id="RKJGCW_a5lWqGsD36-ap-25" value="" style="endArrow=none;html=1;rounded=0;entryX=0.5;entryY=1;entryDx=0;entryDy=0;endFill=0;" parent="1" edge="1">
          <mxGeometry width="50" height="50" relative="1" as="geometry">
            <mxPoint x="1124" y="910" as="sourcePoint" />
            <mxPoint x="1124" y="890" as="targetPoint" />
          </mxGeometry>
        </mxCell>
        <mxCell id="RKJGCW_a5lWqGsD36-ap-26" value="" style="endArrow=none;html=1;rounded=0;exitX=0.5;exitY=0;exitDx=0;exitDy=0;entryX=0.5;entryY=0;entryDx=0;entryDy=0;" parent="1" edge="1">
          <mxGeometry width="50" height="50" relative="1" as="geometry">
            <mxPoint x="1244" y="930" as="sourcePoint" />
            <mxPoint x="1324" y="930" as="targetPoint" />
            <Array as="points">
              <mxPoint x="1244" y="910" />
              <mxPoint x="1284" y="910" />
              <mxPoint x="1324" y="910" />
            </Array>
          </mxGeometry>
        </mxCell>
        <mxCell id="RKJGCW_a5lWqGsD36-ap-27" value="" style="endArrow=none;html=1;rounded=0;entryX=0.5;entryY=1;entryDx=0;entryDy=0;endFill=0;" parent="1" edge="1">
          <mxGeometry width="50" height="50" relative="1" as="geometry">
            <mxPoint x="1284" y="910" as="sourcePoint" />
            <mxPoint x="1284" y="890" as="targetPoint" />
          </mxGeometry>
        </mxCell>
        <mxCell id="RKJGCW_a5lWqGsD36-ap-28" value="&lt;font style=&quot;font-size: 18px;&quot; face=&quot;Computer Modern&quot;&gt;Hierarchical Structure&lt;/font&gt;" style="text;html=1;strokeColor=none;fillColor=none;align=center;verticalAlign=middle;whiteSpace=wrap;rounded=0;" parent="1" vertex="1">
          <mxGeometry x="1064" y="988" width="220" height="50" as="geometry" />
        </mxCell>
        <mxCell id="RKJGCW_a5lWqGsD36-ap-47" value="&lt;font style=&quot;font-size: 16px;&quot;&gt;I&lt;/font&gt;" style="text;html=1;align=center;verticalAlign=middle;whiteSpace=wrap;rounded=0;fillColor=none;strokeColor=none;fontFamily=Computer Modern;" parent="1" vertex="1">
          <mxGeometry x="1064" y="940" width="39.87" height="20" as="geometry" />
        </mxCell>
        <mxCell id="RKJGCW_a5lWqGsD36-ap-48" value="&lt;font size=&quot;3&quot;&gt;just&lt;/font&gt;" style="text;html=1;align=center;verticalAlign=middle;whiteSpace=wrap;rounded=0;fillColor=none;strokeColor=none;fontFamily=Computer Modern;" parent="1" vertex="1">
          <mxGeometry x="1124" y="935" width="80" height="30" as="geometry" />
        </mxCell>
        <mxCell id="RKJGCW_a5lWqGsD36-ap-49" value="&lt;font size=&quot;3&quot;&gt;love&lt;/font&gt;" style="text;html=1;align=center;verticalAlign=middle;whiteSpace=wrap;rounded=0;fillColor=none;strokeColor=none;fontFamily=Computer Modern;" parent="1" vertex="1">
          <mxGeometry x="1214" y="935" width="60" height="30" as="geometry" />
        </mxCell>
        <mxCell id="RKJGCW_a5lWqGsD36-ap-50" value="&lt;font size=&quot;3&quot;&gt;to&lt;/font&gt;" style="text;html=1;align=center;verticalAlign=middle;whiteSpace=wrap;rounded=0;fillColor=none;strokeColor=none;fontFamily=Computer Modern;" parent="1" vertex="1">
          <mxGeometry x="1284" y="935" width="80" height="30" as="geometry" />
        </mxCell>
        <mxCell id="RKJGCW_a5lWqGsD36-ap-51" value="&lt;font style=&quot;font-size: 16px;&quot;&gt;I&lt;/font&gt;" style="text;html=1;align=center;verticalAlign=middle;whiteSpace=wrap;rounded=0;fillColor=none;strokeColor=none;fontFamily=Computer Modern;" parent="1" vertex="1">
          <mxGeometry x="1082.13" y="860" width="39.87" height="20" as="geometry" />
        </mxCell>
        <mxCell id="RKJGCW_a5lWqGsD36-ap-52" value="&lt;font size=&quot;3&quot;&gt;just&lt;/font&gt;" style="text;html=1;align=center;verticalAlign=middle;whiteSpace=wrap;rounded=0;fillColor=none;strokeColor=none;fontFamily=Computer Modern;" parent="1" vertex="1">
          <mxGeometry x="1106.13" y="855" width="80" height="30" as="geometry" />
        </mxCell>
        <mxCell id="RKJGCW_a5lWqGsD36-ap-53" value="&lt;font size=&quot;3&quot;&gt;love&lt;/font&gt;" style="text;html=1;align=center;verticalAlign=middle;whiteSpace=wrap;rounded=0;fillColor=none;strokeColor=none;fontFamily=Computer Modern;" parent="1" vertex="1">
          <mxGeometry x="1237" y="855" width="60" height="30" as="geometry" />
        </mxCell>
        <mxCell id="RKJGCW_a5lWqGsD36-ap-54" value="&lt;font size=&quot;3&quot;&gt;to&lt;/font&gt;" style="text;html=1;align=center;verticalAlign=middle;whiteSpace=wrap;rounded=0;fillColor=none;strokeColor=none;fontFamily=Computer Modern;" parent="1" vertex="1">
          <mxGeometry x="1271" y="855" width="80" height="30" as="geometry" />
        </mxCell>
        <mxCell id="RKJGCW_a5lWqGsD36-ap-59" value="&lt;font style=&quot;font-size: 16px;&quot;&gt;I&lt;/font&gt;" style="text;html=1;align=center;verticalAlign=middle;whiteSpace=wrap;rounded=0;fillColor=none;strokeColor=none;fontFamily=Computer Modern;" parent="1" vertex="1">
          <mxGeometry x="1112.13" y="780" width="39.87" height="20" as="geometry" />
        </mxCell>
        <mxCell id="RKJGCW_a5lWqGsD36-ap-60" value="&lt;font size=&quot;3&quot;&gt;just&lt;/font&gt;" style="text;html=1;align=center;verticalAlign=middle;whiteSpace=wrap;rounded=0;fillColor=none;strokeColor=none;fontFamily=Computer Modern;" parent="1" vertex="1">
          <mxGeometry x="1136.13" y="775" width="80" height="30" as="geometry" />
        </mxCell>
        <mxCell id="RKJGCW_a5lWqGsD36-ap-61" value="&lt;font size=&quot;3&quot;&gt;love&lt;/font&gt;" style="text;html=1;align=center;verticalAlign=middle;whiteSpace=wrap;rounded=0;fillColor=none;strokeColor=none;fontFamily=Computer Modern;" parent="1" vertex="1">
          <mxGeometry x="1207" y="775" width="60" height="30" as="geometry" />
        </mxCell>
        <mxCell id="RKJGCW_a5lWqGsD36-ap-62" value="&lt;font size=&quot;3&quot;&gt;to&lt;/font&gt;" style="text;html=1;align=center;verticalAlign=middle;whiteSpace=wrap;rounded=0;fillColor=none;strokeColor=none;fontFamily=Computer Modern;" parent="1" vertex="1">
          <mxGeometry x="1241" y="775" width="80" height="30" as="geometry" />
        </mxCell>
        <mxCell id="RKJGCW_a5lWqGsD36-ap-63" value="&lt;font style=&quot;font-size: 12px;&quot;&gt;`0`&lt;/font&gt;" style="text;html=1;strokeColor=none;fillColor=none;align=center;verticalAlign=middle;whiteSpace=wrap;rounded=0;fontSize=12;" parent="1" vertex="1">
          <mxGeometry x="1080.13" y="944" width="60" height="35" as="geometry" />
        </mxCell>
        <mxCell id="RKJGCW_a5lWqGsD36-ap-64" value="&lt;font style=&quot;font-size: 12px;&quot;&gt;`1`&lt;/font&gt;" style="text;html=1;strokeColor=none;fillColor=none;align=center;verticalAlign=middle;whiteSpace=wrap;rounded=0;fontSize=12;" parent="1" vertex="1">
          <mxGeometry x="1160" y="944" width="60" height="35" as="geometry" />
        </mxCell>
        <mxCell id="RKJGCW_a5lWqGsD36-ap-65" value="&lt;font style=&quot;font-size: 12px;&quot;&gt;`2`&lt;/font&gt;" style="text;html=1;strokeColor=none;fillColor=none;align=center;verticalAlign=middle;whiteSpace=wrap;rounded=0;fontSize=12;" parent="1" vertex="1">
          <mxGeometry x="1240" y="944" width="60" height="35" as="geometry" />
        </mxCell>
        <mxCell id="RKJGCW_a5lWqGsD36-ap-66" value="&lt;font style=&quot;font-size: 12px;&quot;&gt;`3`&lt;/font&gt;" style="text;html=1;strokeColor=none;fillColor=none;align=center;verticalAlign=middle;whiteSpace=wrap;rounded=0;fontSize=12;" parent="1" vertex="1">
          <mxGeometry x="1320" y="944" width="60" height="35" as="geometry" />
        </mxCell>
        <mxCell id="RKJGCW_a5lWqGsD36-ap-67" value="&lt;font style=&quot;font-size: 12px;&quot;&gt;`0`&lt;/font&gt;" style="text;html=1;strokeColor=none;fillColor=none;align=center;verticalAlign=middle;whiteSpace=wrap;rounded=0;fontSize=12;" parent="1" vertex="1">
          <mxGeometry x="1160" y="864" width="60" height="35" as="geometry" />
        </mxCell>
        <mxCell id="RKJGCW_a5lWqGsD36-ap-68" value="&lt;font style=&quot;font-size: 12px;&quot;&gt;`1`&lt;/font&gt;" style="text;html=1;strokeColor=none;fillColor=none;align=center;verticalAlign=middle;whiteSpace=wrap;rounded=0;fontSize=12;" parent="1" vertex="1">
          <mxGeometry x="1321" y="864" width="60" height="35" as="geometry" />
        </mxCell>
        <mxCell id="RKJGCW_a5lWqGsD36-ap-69" value="&lt;font style=&quot;font-size: 12px;&quot;&gt;`0`&lt;/font&gt;" style="text;html=1;strokeColor=none;fillColor=none;align=center;verticalAlign=middle;whiteSpace=wrap;rounded=0;fontSize=12;" parent="1" vertex="1">
          <mxGeometry x="1321" y="784" width="60" height="35" as="geometry" />
        </mxCell>
        <mxCell id="RKJGCW_a5lWqGsD36-ap-70" value="&lt;font style=&quot;font-size: 12px;&quot;&gt;`0`&lt;/font&gt;" style="text;html=1;strokeColor=none;fillColor=none;align=center;verticalAlign=middle;whiteSpace=wrap;rounded=0;fontSize=12;" parent="1" vertex="1">
          <mxGeometry x="1080.13" y="920" width="60" height="35" as="geometry" />
        </mxCell>
        <mxCell id="RKJGCW_a5lWqGsD36-ap-71" value="&lt;font style=&quot;font-size: 12px;&quot;&gt;`0`&lt;/font&gt;" style="text;html=1;strokeColor=none;fillColor=none;align=center;verticalAlign=middle;whiteSpace=wrap;rounded=0;fontSize=12;" parent="1" vertex="1">
          <mxGeometry x="1160" y="920" width="60" height="35" as="geometry" />
        </mxCell>
        <mxCell id="RKJGCW_a5lWqGsD36-ap-72" value="&lt;font style=&quot;font-size: 12px;&quot;&gt;`0`&lt;/font&gt;" style="text;html=1;strokeColor=none;fillColor=none;align=center;verticalAlign=middle;whiteSpace=wrap;rounded=0;fontSize=12;" parent="1" vertex="1">
          <mxGeometry x="1240" y="920" width="60" height="35" as="geometry" />
        </mxCell>
        <mxCell id="RKJGCW_a5lWqGsD36-ap-73" value="&lt;font style=&quot;font-size: 12px;&quot;&gt;`0`&lt;/font&gt;" style="text;html=1;strokeColor=none;fillColor=none;align=center;verticalAlign=middle;whiteSpace=wrap;rounded=0;fontSize=12;" parent="1" vertex="1">
          <mxGeometry x="1320" y="920" width="60" height="35" as="geometry" />
        </mxCell>
        <mxCell id="RKJGCW_a5lWqGsD36-ap-74" value="&lt;font style=&quot;font-size: 12px;&quot;&gt;`1`&lt;/font&gt;" style="text;html=1;strokeColor=none;fillColor=none;align=center;verticalAlign=middle;whiteSpace=wrap;rounded=0;fontSize=12;" parent="1" vertex="1">
          <mxGeometry x="1320" y="840" width="60" height="35" as="geometry" />
        </mxCell>
        <mxCell id="RKJGCW_a5lWqGsD36-ap-75" value="&lt;font style=&quot;font-size: 12px;&quot;&gt;`1`&lt;/font&gt;" style="text;html=1;strokeColor=none;fillColor=none;align=center;verticalAlign=middle;whiteSpace=wrap;rounded=0;fontSize=12;" parent="1" vertex="1">
          <mxGeometry x="1160" y="840" width="60" height="35" as="geometry" />
        </mxCell>
        <mxCell id="RKJGCW_a5lWqGsD36-ap-76" value="&lt;font style=&quot;font-size: 12px;&quot;&gt;`2`&lt;/font&gt;" style="text;html=1;strokeColor=none;fillColor=none;align=center;verticalAlign=middle;whiteSpace=wrap;rounded=0;fontSize=12;" parent="1" vertex="1">
          <mxGeometry x="1321" y="760" width="60" height="35" as="geometry" />
        </mxCell>
        <mxCell id="RKJGCW_a5lWqGsD36-ap-81" value="" style="rounded=0;whiteSpace=wrap;html=1;fillColor=#dae8fc;strokeColor=#6c8ebf;" parent="1" vertex="1">
          <mxGeometry x="1304.87" y="989" width="40" height="40" as="geometry" />
        </mxCell>
        <mxCell id="RKJGCW_a5lWqGsD36-ap-82" value="&lt;font style=&quot;font-size: 16px;&quot;&gt;vec&lt;/font&gt;" style="text;html=1;align=center;verticalAlign=middle;whiteSpace=wrap;rounded=0;fillColor=none;strokeColor=none;fontFamily=Computer Modern;" parent="1" vertex="1">
          <mxGeometry x="1304.87" y="999" width="39.87" height="20" as="geometry" />
        </mxCell>
        <mxCell id="RKJGCW_a5lWqGsD36-ap-83" value="&lt;font style=&quot;font-size: 12px;&quot;&gt;`j`&lt;/font&gt;" style="text;html=1;strokeColor=none;fillColor=none;align=center;verticalAlign=middle;whiteSpace=wrap;rounded=0;fontSize=12;" parent="1" vertex="1">
          <mxGeometry x="1321" y="1003" width="60" height="35" as="geometry" />
        </mxCell>
        <mxCell id="RKJGCW_a5lWqGsD36-ap-84" value="&lt;font style=&quot;font-size: 12px;&quot;&gt;`h`&lt;/font&gt;" style="text;html=1;strokeColor=none;fillColor=none;align=center;verticalAlign=middle;whiteSpace=wrap;rounded=0;fontSize=12;" parent="1" vertex="1">
          <mxGeometry x="1321" y="979" width="60" height="35" as="geometry" />
        </mxCell>
        <mxCell id="RKJGCW_a5lWqGsD36-ap-86" value="" style="endArrow=none;html=1;rounded=0;entryX=0.5;entryY=1;entryDx=0;entryDy=0;" parent="1" edge="1">
          <mxGeometry width="50" height="50" relative="1" as="geometry">
            <mxPoint x="480" y="1080" as="sourcePoint" />
            <mxPoint x="480" y="1040" as="targetPoint" />
          </mxGeometry>
        </mxCell>
        <mxCell id="RKJGCW_a5lWqGsD36-ap-88" value="" style="rounded=0;whiteSpace=wrap;html=1;fillColor=#f5f5f5;strokeColor=#666666;fontColor=#333333;" parent="1" vertex="1">
          <mxGeometry x="-50" y="1000" width="100" height="40" as="geometry" />
        </mxCell>
        <mxCell id="RKJGCW_a5lWqGsD36-ap-90" value="" style="endArrow=none;html=1;rounded=0;exitX=0.5;exitY=0;exitDx=0;exitDy=0;entryX=0.5;entryY=0;entryDx=0;entryDy=0;" parent="1" source="RKJGCW_a5lWqGsD36-ap-88" edge="1">
          <mxGeometry width="50" height="50" relative="1" as="geometry">
            <mxPoint x="-20" y="1000" as="sourcePoint" />
            <mxPoint x="120" y="1000" as="targetPoint" />
            <Array as="points">
              <mxPoint y="980" />
              <mxPoint x="80" y="980" />
              <mxPoint x="120" y="980" />
            </Array>
          </mxGeometry>
        </mxCell>
        <mxCell id="RKJGCW_a5lWqGsD36-ap-91" value="" style="endArrow=none;html=1;rounded=0;entryX=0.5;entryY=1;entryDx=0;entryDy=0;endFill=0;" parent="1" edge="1">
          <mxGeometry width="50" height="50" relative="1" as="geometry">
            <mxPoint x="59.82000000000005" y="980" as="sourcePoint" />
            <mxPoint x="59.82000000000005" y="960" as="targetPoint" />
          </mxGeometry>
        </mxCell>
        <mxCell id="RKJGCW_a5lWqGsD36-ap-97" value="" style="rounded=0;whiteSpace=wrap;html=1;fillColor=#f5f5f5;strokeColor=#666666;fontColor=#333333;" parent="1" vertex="1">
          <mxGeometry x="70" y="1000" width="100" height="40" as="geometry" />
        </mxCell>
        <mxCell id="RKJGCW_a5lWqGsD36-ap-98" value="&lt;font color=&quot;#ad3e00&quot;&gt;`A_0^0 = 2A_0^1 - A_1^0`&lt;/font&gt;" style="text;html=1;strokeColor=none;fillColor=none;align=center;verticalAlign=middle;whiteSpace=wrap;rounded=0;" parent="1" vertex="1">
          <mxGeometry x="-30" y="1005" width="60" height="30" as="geometry" />
        </mxCell>
        <mxCell id="RKJGCW_a5lWqGsD36-ap-99" value="" style="rounded=0;whiteSpace=wrap;html=1;fillColor=#f5f5f5;strokeColor=#666666;fontColor=#333333;" parent="1" vertex="1">
          <mxGeometry x="190" y="1000" width="100" height="40" as="geometry" />
        </mxCell>
        <mxCell id="RKJGCW_a5lWqGsD36-ap-101" value="" style="rounded=0;whiteSpace=wrap;html=1;fillColor=#f5f5f5;strokeColor=#666666;fontColor=#333333;" parent="1" vertex="1">
          <mxGeometry x="310" y="1000" width="100" height="40" as="geometry" />
        </mxCell>
        <mxCell id="RKJGCW_a5lWqGsD36-ap-102" value="&lt;font color=&quot;#ad3e00&quot;&gt;`A_2^0 =&lt;br&gt;2A_1^1 - A_3^0`&lt;/font&gt;" style="text;html=1;strokeColor=none;fillColor=none;align=center;verticalAlign=middle;whiteSpace=wrap;rounded=0;" parent="1" vertex="1">
          <mxGeometry x="208.13" y="1005" width="60" height="30" as="geometry" />
        </mxCell>
        <mxCell id="RKJGCW_a5lWqGsD36-ap-103" value="" style="endArrow=none;html=1;rounded=0;entryX=0.5;entryY=1;entryDx=0;entryDy=0;" parent="1" edge="1">
          <mxGeometry width="50" height="50" relative="1" as="geometry">
            <mxPoint x="120" y="1080" as="sourcePoint" />
            <mxPoint x="120" y="1040" as="targetPoint" />
          </mxGeometry>
        </mxCell>
        <mxCell id="RKJGCW_a5lWqGsD36-ap-104" value="" style="endArrow=none;html=1;rounded=0;entryX=0.5;entryY=1;entryDx=0;entryDy=0;" parent="1" edge="1">
          <mxGeometry width="50" height="50" relative="1" as="geometry">
            <mxPoint x="239.55999999999995" y="1080" as="sourcePoint" />
            <mxPoint x="239.55999999999995" y="1040" as="targetPoint" />
          </mxGeometry>
        </mxCell>
        <mxCell id="RKJGCW_a5lWqGsD36-ap-105" value="" style="endArrow=none;html=1;rounded=0;entryX=0.5;entryY=1;entryDx=0;entryDy=0;" parent="1" edge="1">
          <mxGeometry width="50" height="50" relative="1" as="geometry">
            <mxPoint x="359.78" y="1080" as="sourcePoint" />
            <mxPoint x="359.78" y="1040" as="targetPoint" />
          </mxGeometry>
        </mxCell>
        <mxCell id="RKJGCW_a5lWqGsD36-ap-110" value="" style="endArrow=none;html=1;rounded=0;entryX=0.5;entryY=1;entryDx=0;entryDy=0;" parent="1" edge="1">
          <mxGeometry width="50" height="50" relative="1" as="geometry">
            <mxPoint y="1080" as="sourcePoint" />
            <mxPoint y="1040" as="targetPoint" />
          </mxGeometry>
        </mxCell>
        <mxCell id="uUXREMYuN0MkH9lXa1Dk-203" value="&lt;font style=&quot;font-size: 11px;&quot; color=&quot;#ad3e00&quot;&gt;`A_5^0 =&amp;nbsp;\langle q, K_5^0 \rangle&lt;br&gt;`&lt;/font&gt;" style="text;html=1;strokeColor=none;fillColor=none;align=center;verticalAlign=middle;whiteSpace=wrap;rounded=0;" parent="1" vertex="1">
          <mxGeometry x="570" y="1005" width="60" height="30" as="geometry" />
        </mxCell>
        <mxCell id="RKJGCW_a5lWqGsD36-ap-111" value="" style="rounded=0;whiteSpace=wrap;html=1;fillColor=#dae8fc;strokeColor=#6c8ebf;" parent="1" vertex="1">
          <mxGeometry x="-50" y="760" width="940" height="40" as="geometry" />
        </mxCell>
        <mxCell id="RKJGCW_a5lWqGsD36-ap-112" value="`A_0^3 = \langle q, K_0^3 \rangle`" style="text;html=1;strokeColor=none;fillColor=none;align=center;verticalAlign=middle;whiteSpace=wrap;rounded=0;fontColor=#b51a00;" parent="1" vertex="1">
          <mxGeometry x="390" y="765" width="60" height="30" as="geometry" />
        </mxCell>
        <mxCell id="RKJGCW_a5lWqGsD36-ap-96" value="&lt;font style=&quot;font-size: 11px;&quot; color=&quot;#ad3e00&quot;&gt;`A_1^0 =&amp;nbsp;\langle q, K_1^0 \rangle&lt;br&gt;`&lt;/font&gt;" style="text;html=1;strokeColor=none;fillColor=none;align=center;verticalAlign=middle;whiteSpace=wrap;rounded=0;" parent="1" vertex="1">
          <mxGeometry x="90" y="1005" width="60" height="30" as="geometry" />
        </mxCell>
        <mxCell id="RKJGCW_a5lWqGsD36-ap-100" value="&lt;font style=&quot;font-size: 11px;&quot; color=&quot;#ad3e00&quot;&gt;`A_3^0 =&amp;nbsp;\langle q, K_3^0 \rangle&lt;br&gt;`&lt;/font&gt;" style="text;html=1;strokeColor=none;fillColor=none;align=center;verticalAlign=middle;whiteSpace=wrap;rounded=0;" parent="1" vertex="1">
          <mxGeometry x="330" y="1005" width="60" height="30" as="geometry" />
        </mxCell>
        <mxCell id="RKJGCW_a5lWqGsD36-ap-114" value="" style="endArrow=none;html=1;rounded=0;" parent="1" source="RKJGCW_a5lWqGsD36-ap-92" edge="1">
          <mxGeometry width="50" height="50" relative="1" as="geometry">
            <mxPoint x="180" y="840" as="sourcePoint" />
            <mxPoint x="420" y="820" as="targetPoint" />
            <Array as="points">
              <mxPoint x="180" y="820" />
            </Array>
          </mxGeometry>
        </mxCell>
        <mxCell id="RKJGCW_a5lWqGsD36-ap-115" value="" style="endArrow=none;html=1;rounded=0;" parent="1" edge="1">
          <mxGeometry width="50" height="50" relative="1" as="geometry">
            <mxPoint x="660" y="840" as="sourcePoint" />
            <mxPoint x="420" y="820" as="targetPoint" />
            <Array as="points">
              <mxPoint x="660" y="820" />
            </Array>
          </mxGeometry>
        </mxCell>
        <mxCell id="RKJGCW_a5lWqGsD36-ap-116" value="" style="endArrow=none;html=1;rounded=0;entryX=0.5;entryY=1;entryDx=0;entryDy=0;" parent="1" edge="1">
          <mxGeometry width="50" height="50" relative="1" as="geometry">
            <mxPoint x="600" y="1080" as="sourcePoint" />
            <mxPoint x="600" y="1040" as="targetPoint" />
          </mxGeometry>
        </mxCell>
        <mxCell id="RKJGCW_a5lWqGsD36-ap-119" value="" style="rounded=0;whiteSpace=wrap;html=1;fillColor=#fff2cc;strokeColor=#d6b656;" parent="1" vertex="1">
          <mxGeometry x="760" y="1129" width="30" height="30" as="geometry" />
        </mxCell>
        <mxCell id="RKJGCW_a5lWqGsD36-ap-120" value="&lt;font face=&quot;Computer Modern&quot;&gt;&lt;span style=&quot;font-size: 14px;&quot;&gt;Buds at `t=2`&lt;/span&gt;&lt;/font&gt;" style="text;html=1;strokeColor=none;fillColor=none;align=center;verticalAlign=middle;whiteSpace=wrap;rounded=0;" parent="1" vertex="1">
          <mxGeometry x="786" y="1129" width="104" height="30" as="geometry" />
        </mxCell>
        <mxCell id="RKJGCW_a5lWqGsD36-ap-122" value="" style="rounded=0;whiteSpace=wrap;html=1;fillColor=#e1d5e7;strokeColor=#9673a6;" parent="1" vertex="1">
          <mxGeometry x="600" y="1130" width="30" height="30" as="geometry" />
        </mxCell>
        <mxCell id="RKJGCW_a5lWqGsD36-ap-123" value="&lt;font face=&quot;Computer Modern&quot;&gt;&lt;span style=&quot;font-size: 14px;&quot;&gt;Buds at `t=1`&lt;/span&gt;&lt;/font&gt;" style="text;html=1;strokeColor=none;fillColor=none;align=center;verticalAlign=middle;whiteSpace=wrap;rounded=0;" parent="1" vertex="1">
          <mxGeometry x="626" y="1130" width="104" height="30" as="geometry" />
        </mxCell>
        <mxCell id="RKJGCW_a5lWqGsD36-ap-126" value="" style="endArrow=none;html=1;rounded=0;exitX=0.5;exitY=0;exitDx=0;exitDy=0;entryX=0.5;entryY=0;entryDx=0;entryDy=0;" parent="1" edge="1">
          <mxGeometry width="50" height="50" relative="1" as="geometry">
            <mxPoint x="240" y="1000" as="sourcePoint" />
            <mxPoint x="360" y="1000" as="targetPoint" />
            <Array as="points">
              <mxPoint x="240" y="980" />
              <mxPoint x="320" y="980" />
              <mxPoint x="360" y="980" />
            </Array>
          </mxGeometry>
        </mxCell>
        <mxCell id="RKJGCW_a5lWqGsD36-ap-127" value="" style="endArrow=none;html=1;rounded=0;entryX=0.5;entryY=1;entryDx=0;entryDy=0;endFill=0;" parent="1" edge="1">
          <mxGeometry width="50" height="50" relative="1" as="geometry">
            <mxPoint x="299.82000000000005" y="980" as="sourcePoint" />
            <mxPoint x="299.82000000000005" y="960" as="targetPoint" />
          </mxGeometry>
        </mxCell>
        <mxCell id="RKJGCW_a5lWqGsD36-ap-128" value="" style="endArrow=none;html=1;rounded=0;exitX=0.5;exitY=0;exitDx=0;exitDy=0;entryX=0.5;entryY=0;entryDx=0;entryDy=0;" parent="1" edge="1">
          <mxGeometry width="50" height="50" relative="1" as="geometry">
            <mxPoint x="720" y="1000" as="sourcePoint" />
            <mxPoint x="840" y="1000" as="targetPoint" />
            <Array as="points">
              <mxPoint x="720" y="980" />
              <mxPoint x="800" y="980" />
              <mxPoint x="840" y="980" />
            </Array>
          </mxGeometry>
        </mxCell>
        <mxCell id="RKJGCW_a5lWqGsD36-ap-129" value="" style="endArrow=none;html=1;rounded=0;entryX=0.5;entryY=1;entryDx=0;entryDy=0;endFill=0;" parent="1" edge="1">
          <mxGeometry width="50" height="50" relative="1" as="geometry">
            <mxPoint x="779.82" y="980" as="sourcePoint" />
            <mxPoint x="779.82" y="960" as="targetPoint" />
          </mxGeometry>
        </mxCell>
        <mxCell id="RKJGCW_a5lWqGsD36-ap-133" value="" style="endArrow=none;html=1;rounded=0;" parent="1" edge="1">
          <mxGeometry width="50" height="50" relative="1" as="geometry">
            <mxPoint x="540" y="920" as="sourcePoint" />
            <mxPoint x="660" y="900" as="targetPoint" />
            <Array as="points">
              <mxPoint x="540" y="900" />
            </Array>
          </mxGeometry>
        </mxCell>
        <mxCell id="RKJGCW_a5lWqGsD36-ap-135" value="" style="endArrow=none;html=1;rounded=0;" parent="1" edge="1">
          <mxGeometry width="50" height="50" relative="1" as="geometry">
            <mxPoint x="780" y="920" as="sourcePoint" />
            <mxPoint x="660" y="900" as="targetPoint" />
            <Array as="points">
              <mxPoint x="780" y="900" />
            </Array>
          </mxGeometry>
        </mxCell>
        <mxCell id="uUXREMYuN0MkH9lXa1Dk-159" value="" style="rounded=0;whiteSpace=wrap;html=1;fillColor=#e1d5e7;strokeColor=#9673a6;" parent="1" vertex="1">
          <mxGeometry x="430" y="840" width="460" height="40" as="geometry" />
        </mxCell>
        <mxCell id="uUXREMYuN0MkH9lXa1Dk-196" value="`A_1^2 = \langle q, K_1^2 \rangle`" style="text;html=1;strokeColor=none;fillColor=none;align=center;verticalAlign=middle;whiteSpace=wrap;rounded=0;fontColor=#b51a00;" parent="1" vertex="1">
          <mxGeometry x="630" y="845" width="60" height="30" as="geometry" />
        </mxCell>
        <mxCell id="uUXREMYuN0MkH9lXa1Dk-121" value="" style="rounded=0;whiteSpace=wrap;html=1;fillColor=#fff2cc;strokeColor=#d6b656;" parent="1" vertex="1">
          <mxGeometry x="430" y="920" width="220" height="40" as="geometry" />
        </mxCell>
        <mxCell id="uUXREMYuN0MkH9lXa1Dk-137" value="" style="rounded=0;whiteSpace=wrap;html=1;fillColor=#fff2cc;strokeColor=#d6b656;" parent="1" vertex="1">
          <mxGeometry x="670" y="920" width="220" height="40" as="geometry" />
        </mxCell>
        <mxCell id="uUXREMYuN0MkH9lXa1Dk-195" value="`A_3^1 = \langle q, K_3^1 \rangle`" style="text;html=1;strokeColor=none;fillColor=none;align=center;verticalAlign=middle;whiteSpace=wrap;rounded=0;fontColor=#b51a00;" parent="1" vertex="1">
          <mxGeometry x="750" y="925" width="60" height="30" as="geometry" />
        </mxCell>
        <mxCell id="uUXREMYuN0MkH9lXa1Dk-197" value="`A_2^1 = 2A_1^2 - A_3^1`" style="text;html=1;strokeColor=none;fillColor=none;align=center;verticalAlign=middle;whiteSpace=wrap;rounded=0;fontColor=#b51a00;" parent="1" vertex="1">
          <mxGeometry x="510" y="925" width="60" height="30" as="geometry" />
        </mxCell>
        <mxCell id="RKJGCW_a5lWqGsD36-ap-136" value="" style="endArrow=none;html=1;rounded=0;entryX=0.5;entryY=1;entryDx=0;entryDy=0;" parent="1" edge="1">
          <mxGeometry width="50" height="50" relative="1" as="geometry">
            <mxPoint x="180" y="900" as="sourcePoint" />
            <mxPoint x="179.37" y="860" as="targetPoint" />
          </mxGeometry>
        </mxCell>
        <mxCell id="RKJGCW_a5lWqGsD36-ap-137" value="" style="endArrow=none;html=1;rounded=0;" parent="1" edge="1">
          <mxGeometry width="50" height="50" relative="1" as="geometry">
            <mxPoint x="60" y="920" as="sourcePoint" />
            <mxPoint x="180" y="900" as="targetPoint" />
            <Array as="points">
              <mxPoint x="60" y="900" />
            </Array>
          </mxGeometry>
        </mxCell>
        <mxCell id="RKJGCW_a5lWqGsD36-ap-138" value="" style="endArrow=none;html=1;rounded=0;" parent="1" edge="1">
          <mxGeometry width="50" height="50" relative="1" as="geometry">
            <mxPoint x="300" y="920" as="sourcePoint" />
            <mxPoint x="180" y="900" as="targetPoint" />
            <Array as="points">
              <mxPoint x="300" y="900" />
            </Array>
          </mxGeometry>
        </mxCell>
        <mxCell id="RKJGCW_a5lWqGsD36-ap-87" value="" style="rounded=0;whiteSpace=wrap;html=1;fillColor=#f5f5f5;strokeColor=#666666;fontColor=#333333;" parent="1" vertex="1">
          <mxGeometry x="-50" y="920" width="220" height="40" as="geometry" />
        </mxCell>
        <mxCell id="RKJGCW_a5lWqGsD36-ap-89" value="" style="rounded=0;whiteSpace=wrap;html=1;fillColor=#f5f5f5;strokeColor=#666666;fontColor=#333333;" parent="1" vertex="1">
          <mxGeometry x="190" y="920" width="220" height="40" as="geometry" />
        </mxCell>
        <mxCell id="RKJGCW_a5lWqGsD36-ap-93" value="`A_1^1 = \langle q, K_1^1 \rangle`" style="text;html=1;strokeColor=none;fillColor=none;align=center;verticalAlign=middle;whiteSpace=wrap;rounded=0;fontColor=#b51a00;" parent="1" vertex="1">
          <mxGeometry x="270" y="925" width="60" height="30" as="geometry" />
        </mxCell>
        <mxCell id="RKJGCW_a5lWqGsD36-ap-95" value="`A_0^1 = 2A_0^2 - A_1^1`" style="text;html=1;strokeColor=none;fillColor=none;align=center;verticalAlign=middle;whiteSpace=wrap;rounded=0;fontColor=#b51a00;" parent="1" vertex="1">
          <mxGeometry x="30" y="925" width="60" height="30" as="geometry" />
        </mxCell>
        <mxCell id="RKJGCW_a5lWqGsD36-ap-121" value="" style="rounded=0;whiteSpace=wrap;html=1;fillColor=#fff2cc;strokeColor=#d6b656;" parent="1" vertex="1">
          <mxGeometry x="-50" y="840" width="460" height="40" as="geometry" />
        </mxCell>
        <mxCell id="RKJGCW_a5lWqGsD36-ap-139" value="" style="endArrow=none;html=1;rounded=0;" parent="1" target="RKJGCW_a5lWqGsD36-ap-92" edge="1">
          <mxGeometry width="50" height="50" relative="1" as="geometry">
            <mxPoint x="180" y="840" as="sourcePoint" />
            <mxPoint x="420" y="820" as="targetPoint" />
            <Array as="points" />
          </mxGeometry>
        </mxCell>
        <mxCell id="RKJGCW_a5lWqGsD36-ap-92" value="" style="rounded=0;whiteSpace=wrap;html=1;fillColor=#e1d5e7;strokeColor=none;fillStyle=hatch;strokeWidth=15;perimeterSpacing=0;" parent="1" vertex="1">
          <mxGeometry x="-51" y="840" width="460" height="40" as="geometry" />
        </mxCell>
        <mxCell id="RKJGCW_a5lWqGsD36-ap-94" value="`A_0^2 = 2A_0^3 - A_1^2`" style="text;html=1;strokeColor=none;fillColor=none;align=center;verticalAlign=middle;whiteSpace=wrap;rounded=0;fontColor=#b51a00;" parent="1" vertex="1">
          <mxGeometry x="150" y="845" width="60" height="30" as="geometry" />
        </mxCell>
      </root>
    </mxGraphModel>
  </diagram>
</mxfile>
